<?xml version="1.0" encoding="UTF-8" standalone="no"?>
<!-- Created with Inkscape (http://www.inkscape.org/) -->
<svg
   xmlns:svg="http://www.w3.org/2000/svg"
   xmlns="http://www.w3.org/2000/svg"
   version="1.0"
   width="744.09448"
   height="260.07874"
   id="svg6264">
  <defs
     id="defs6266" />
  <g
     transform="translate(-1436.3362,224.74281)"
     style="display:inline"
     id="layer2">
    <g
       transform="translate(17.716541,17.789297)"
       id="g8679">
      <path
         d="M 1653.2701,-224.74281 L 1613.0476,-224.74281 C 1617.3335,-222.5833 1619.9714,-217.40726 1619.9714,-211.78607 C 1619.9714,-206.61003 1618.4876,-199.48874 1615.5207,-191.51035 L 1595.4094,-136.04058 L 1559.3087,-224.74281 L 1526.9993,-224.74281 C 1536.0657,-217.83585 1540.3524,-203.80768 1533.5934,-188.26292 L 1509.8558,-133.45256 L 1474.0848,-224.74281 L 1436.3362,-224.74281 C 1442.4349,-220.6382 1446.8857,-211.14323 1452.3256,-197.98872 L 1489.2507,-105.39622 C 1494.1961,-92.884631 1499.8009,-86.406262 1511.6694,-80.801557 L 1550.0775,-167.32787 L 1576.4531,-105.39622 C 1581.7274,-93.098887 1587.1674,-86.406262 1599.0366,-80.801557 L 1653.2701,-224.74281"
         style="fill:#8e8674;fill-rule:nonzero;stroke:none;stroke-width:0.062;stroke-linecap:butt;stroke-linejoin:miter;stroke-miterlimit:4;stroke-dasharray:none"
         id="path12473" />
      <path
         d="M 1738.8237,-107.55565 C 1729.5924,-100.64869 1719.8666,-97.632082 1706.1845,-97.632082 C 1698.931,-97.632082 1692.3377,-98.275003 1687.722,-99.346436 L 1687.722,-134.75482 L 1697.6128,-134.75482 C 1709.6461,-134.75482 1713.7671,-133.88115 1717.0637,-130.22162 L 1717.0637,-150.92593 L 1687.722,-150.92593 L 1687.722,-180.0702 C 1687.722,-180.0702 1692.1728,-180.71312 1701.404,-180.71312 C 1712.2832,-180.71312 1719.8666,-178.98228 1724.1524,-174.23475 L 1724.1524,-195.59847 L 1653.7639,-195.59847 C 1659.3688,-192.58186 1660.1931,-188.04866 1660.1931,-169.27296 L 1660.1931,-109.07223 C 1660.1931,-90.296535 1659.3688,-85.76334 1653.7639,-82.730245 L 1730.9106,-82.730245 L 1738.8237,-107.55565"
         style="fill:#8e8674;fill-rule:nonzero;stroke:none;stroke-width:0.062;stroke-linecap:butt;stroke-linejoin:miter;stroke-miterlimit:4;stroke-dasharray:none"
         id="path12475" />
      <path
         d="M 1829.8166,-117.69355 C 1829.8166,-152.22818 1777.3967,-149.85442 1777.3967,-171.00388 C 1777.3967,-177.26792 1783.0015,-182.65829 1792.7274,-182.65829 C 1803.112,-182.65829 1812.0135,-178.98228 1821.7394,-169.71804 L 1821.7394,-194.3127 C 1811.8487,-196.90072 1803.7715,-198.41731 1793.8807,-198.41731 C 1772.2864,-198.41731 1750.1975,-185.46065 1750.1975,-164.09693 C 1750.1975,-125.25984 1802.7823,-130.86447 1802.7823,-109.07223 C 1802.7823,-101.29161 1795.8592,-95.686906 1783.9908,-95.686906 C 1770.4736,-95.686906 1757.6152,-101.07728 1744.2629,-112.73176 L 1751.3516,-85.76334 C 1762.0659,-81.873067 1771.1323,-79.927892 1781.188,-79.927892 C 1808.7169,-79.927892 1829.8166,-95.044062 1829.8166,-117.69355"
         style="fill:#8e8674;fill-rule:nonzero;stroke:none;stroke-width:0.062;stroke-linecap:butt;stroke-linejoin:miter;stroke-miterlimit:4;stroke-dasharray:none"
         id="path12477" />
      <path
         d="M 1930.2063,-195.59847 L 1838.0594,-195.59847 L 1831.795,-174.23475 C 1838.554,-178.98228 1844.8175,-180.71312 1856.357,-180.71312 L 1867.2362,-180.71312 L 1867.2362,-109.07223 C 1867.2362,-90.296535 1866.4119,-85.76334 1860.6429,-82.730245 L 1901.0295,-82.730245 C 1895.4246,-85.76334 1894.6003,-90.296535 1894.6003,-109.07223 L 1894.6003,-180.71312 L 1904.1613,-180.71312 C 1914.3817,-180.71312 1921.3048,-179.21302 1924.7663,-174.23475 L 1930.2063,-195.59847"
         style="fill:#8e8674;fill-rule:nonzero;stroke:none;stroke-width:0.062;stroke-linecap:butt;stroke-linejoin:miter;stroke-miterlimit:4;stroke-dasharray:none"
         id="path12479" />
      <path
         d="M 1982.9567,-82.730245 C 1977.3519,-85.76334 1976.5275,-90.296535 1976.5275,-109.07223 L 1976.5275,-169.27296 C 1976.5275,-188.04866 1977.3519,-192.58186 1982.9567,-195.59847 L 1942.7342,-195.59847 C 1948.3391,-192.58186 1949.1635,-188.04866 1949.1635,-169.27296 L 1949.1635,-109.07223 C 1949.1635,-90.296535 1948.3391,-85.76334 1942.7342,-82.730245 L 1982.9567,-82.730245"
         style="fill:#8e8674;fill-rule:nonzero;stroke:none;stroke-width:0.062;stroke-linecap:butt;stroke-linejoin:miter;stroke-miterlimit:4;stroke-dasharray:none"
         id="path12481" />
      <path
         d="M 2116.9741,-195.59847 L 2080.049,-195.59847 C 2087.4667,-191.72468 2088.2911,-183.51547 2088.2911,-171.00388 L 2088.2911,-125.25984 L 2040.9815,-181.35604 C 2036.3658,-187.19149 2033.0684,-191.51035 2030.1015,-195.59847 L 1997.4623,-195.59847 C 2004.2213,-191.72468 2007.3531,-184.38913 2007.3531,-169.05871 L 2007.3531,-107.34132 C 2007.3531,-94.829729 2006.5287,-86.620517 1999.111,-82.730245 L 2036.0361,-82.730245 C 2028.7825,-86.620517 2027.9589,-94.829729 2027.9589,-107.34132 L 2027.9589,-153.95903 L 2076.5875,-96.115495 C 2083.5106,-87.922771 2092.4121,-84.461087 2108.8969,-81.873067 L 2108.8969,-171.00388 C 2108.8969,-183.51547 2109.8854,-191.72468 2116.9741,-195.59847"
         style="fill:#8e8674;fill-rule:nonzero;stroke:none;stroke-width:0.062;stroke-linecap:butt;stroke-linejoin:miter;stroke-miterlimit:4;stroke-dasharray:none"
         id="path12483" />
      <path
         d="M 1498.3171,-18.754574 L 1498.3171,-8.8145204 C 1498.3171,-6.3418337 1498.6468,-2.3361511 1495.844,-1.2811278 L 1495.844,-1.1163336 L 1506.2294,-1.1163336 L 1506.2294,-1.2811278 C 1503.4273,-2.3361511 1503.7571,-6.3418337 1503.7571,-8.8145204 L 1503.7571,-29.58478 C 1503.7571,-32.040902 1503.4273,-36.063072 1506.2294,-37.101608 L 1506.2294,-37.266479 L 1495.844,-37.266479 L 1495.844,-37.101608 C 1498.6468,-36.063072 1498.3171,-32.040902 1498.3171,-29.518831 L 1498.3171,-22.710795 L 1478.3707,-22.710795 L 1478.3707,-29.518831 C 1478.3707,-32.040902 1478.041,-36.063072 1480.8438,-37.101608 L 1480.8438,-37.266479 L 1470.4584,-37.266479 L 1470.4584,-37.101608 C 1473.2605,-36.063072 1472.7666,-32.040902 1472.7666,-29.58478 L 1472.7666,-8.8145204 C 1472.7666,-6.3418337 1473.0956,-2.3361511 1470.4584,-1.2811278 L 1470.4584,-1.1163336 L 1480.8438,-1.1163336 L 1480.8438,-1.2811278 C 1478.041,-2.3361511 1478.3707,-6.3418337 1478.3707,-8.8145204 L 1478.3707,-18.754574 L 1498.3171,-18.754574"
         style="fill:#8e8674;fill-rule:nonzero;stroke:none;stroke-width:0.062;stroke-linecap:butt;stroke-linejoin:miter;stroke-miterlimit:4;stroke-dasharray:none"
         id="path12485" />
      <path
         d="M 1542.3301,-38.206093 C 1530.7914,-38.46981 1521.725,-29.749574 1521.725,-19.298496 C 1521.725,-8.0397014 1530.7914,-0.24266904 1541.6706,-0.24266904 C 1552.7154,-0.24266904 1561.9467,-8.3694446 1561.9467,-19.578777 C 1561.9467,-29.469369 1553.8695,-38.255477 1542.3301,-38.206093 z M 1541.8354,-34.249794 C 1550.5721,-34.249794 1555.6823,-26.502145 1555.6823,-18.474292 C 1555.6823,-10.298055 1550.4072,-4.1988904 1542.0003,-4.1988904 C 1533.4285,-4.1988904 1527.9885,-12.111333 1527.9885,-19.793033 C 1527.9885,-28.101167 1533.4285,-34.249794 1541.8354,-34.249794"
         style="fill:#8e8674;fill-rule:nonzero;stroke:none;stroke-width:0.062;stroke-linecap:butt;stroke-linejoin:miter;stroke-miterlimit:4;stroke-dasharray:none"
         id="path12493" />
      <path
         d="M 1588.981,-33.310181 L 1593.9263,-33.310181 C 1595.7392,-33.310181 1597.8825,-33.029976 1598.7068,-31.117776 L 1598.8717,-31.117776 L 1600.5197,-37.645607 L 1600.3548,-37.645607 C 1599.6953,-37.315941 1598.8717,-37.266479 1597.8825,-37.266479 L 1575.9584,-37.266479 C 1575.299,-37.381812 1574.6395,-37.381812 1573.98,-37.645607 L 1573.8151,-37.645607 L 1571.8374,-31.117776 L 1572.0023,-31.117776 C 1573.6502,-32.716798 1576.1233,-33.310181 1578.5956,-33.310181 L 1583.3761,-33.310181 L 1583.3761,-8.8145204 C 1583.3761,-6.3418337 1583.7059,-2.3361511 1580.9038,-1.2811278 L 1580.9038,-1.1163336 L 1591.783,-1.1163336 L 1591.783,-1.2811278 C 1588.981,-2.9955601 1588.981,-5.1385037 1588.981,-8.2540345 L 1588.981,-33.310181"
         style="fill:#8e8674;fill-rule:nonzero;stroke:none;stroke-width:0.062;stroke-linecap:butt;stroke-linejoin:miter;stroke-miterlimit:4;stroke-dasharray:none"
         id="path12495" />
      <path
         d="M 1623.2681,-18.754574 L 1627.3891,-18.754574 C 1629.0378,-18.754574 1631.3452,-18.804036 1632.3345,-17.221501 L 1632.4993,-17.221501 L 1632.4993,-23.040461 L 1632.3345,-23.040461 C 1631.675,-22.710795 1630.6865,-22.710795 1629.8622,-22.710795 L 1623.2681,-22.710795 L 1623.2681,-32.931053 C 1625.0817,-33.260797 1627.0593,-33.310181 1628.8729,-33.310181 C 1631.5101,-33.310181 1633.6534,-33.095925 1635.4662,-31.117776 L 1635.6311,-31.117776 L 1635.6311,-37.546684 L 1635.4662,-37.546684 C 1634.6427,-37.151069 1633.8183,-37.266479 1632.8291,-37.266479 L 1615.1909,-37.266479 L 1615.1909,-37.101608 C 1617.993,-36.063072 1617.6632,-32.040902 1617.6632,-29.518831 L 1617.6632,-8.8145204 C 1617.6632,-6.3418337 1617.993,-2.2702025 1615.1909,-1.2811278 L 1615.1909,-1.1163336 L 1638.1042,-1.1163336 L 1640.5765,-8.3199831 L 1640.4116,-8.3199831 C 1637.7744,-5.8967581 1633.9832,-4.7428893 1630.3568,-5.072555 L 1623.2681,-5.7318866 L 1623.2681,-18.754574"
         style="fill:#8e8674;fill-rule:nonzero;stroke:none;stroke-width:0.062;stroke-linecap:butt;stroke-linejoin:miter;stroke-miterlimit:4;stroke-dasharray:none"
         id="path12497" />
      <path
         d="M 1663.4898,-5.5670924 L 1663.4898,-29.518831 C 1663.4898,-31.99144 1663.16,-36.063072 1665.9628,-37.101608 L 1665.9628,-37.266479 L 1655.4126,-37.266479 L 1655.4126,-37.101608 C 1658.2147,-36.063072 1657.8857,-32.040902 1657.8857,-29.518831 L 1657.8857,-8.8145204 C 1657.8857,-6.3418337 1658.2147,-2.2702025 1655.4126,-1.2811278 L 1655.4126,-1.1163336 L 1677.9961,-1.1163336 L 1680.9631,-8.418906 L 1680.7982,-8.418906 C 1677.9961,-6.127578 1674.6995,-4.858222 1671.0731,-5.072555 L 1663.4898,-5.5670924"
         style="fill:#8e8674;fill-rule:nonzero;stroke:none;stroke-width:0.062;stroke-linecap:butt;stroke-linejoin:miter;stroke-miterlimit:4;stroke-dasharray:none"
         id="path12499" />
      <path
         d="M 1716.734,-36.936736 C 1714.0968,-37.761017 1711.2948,-38.140144 1708.6568,-38.140144 C 1701.8987,-38.140144 1694.81,-35.502663 1694.81,-28.595705 C 1694.81,-16.941296 1713.7671,-18.474292 1713.7671,-9.9024407 C 1713.7671,-6.0616297 1708.9866,-4.1988904 1705.8548,-4.1988904 C 1701.5689,-4.1988904 1697.1182,-5.9627068 1693.8215,-8.7485718 L 1695.4694,-1.8910753 C 1698.602,-0.73720639 1701.8987,-0.24266904 1705.1953,-0.24266904 C 1713.7671,-0.24266904 1720.0314,-5.7318866 1720.0314,-11.616796 C 1720.0314,-21.771182 1701.0743,-21.672259 1701.0743,-29.189165 C 1701.0743,-32.980515 1705.0304,-34.200332 1708.1622,-34.200332 C 1711.2948,-34.200332 1714.5914,-32.931053 1716.734,-30.738648 L 1716.734,-36.936736"
         style="fill:#8e8674;fill-rule:nonzero;stroke:none;stroke-width:0.062;stroke-linecap:butt;stroke-linejoin:miter;stroke-miterlimit:4;stroke-dasharray:none"
         id="path12507" />
      <path
         d="M 1798.6612,-1.1163336 L 1798.6612,-1.2811278 C 1788.2767,-6.0616297 1780.1987,-14.58402 1771.9567,-22.430591 C 1774.4298,-24.688945 1776.7372,-26.947299 1776.7372,-30.573777 C 1776.7372,-35.123458 1773.2757,-38.140144 1768.8249,-38.140144 C 1764.539,-38.140144 1760.2531,-35.074074 1760.2531,-30.507906 C 1760.2531,-27.441759 1762.5606,-24.853739 1764.7039,-22.760257 C 1760.5829,-19.578777 1757.1213,-16.331349 1757.1213,-10.891515 C 1757.1213,-4.0834803 1763.22,-0.40746322 1769.4844,-0.40746322 C 1774.7595,-0.40746322 1778.0562,-2.3361511 1780.8582,-6.836371 C 1782.6718,-5.1879651 1785.4738,-3.0449441 1787.4523,-2.0064854 C 1788.9361,-1.2316663 1790.749,-1.1163336 1792.5625,-1.1163336 L 1798.6612,-1.1163336 z M 1768.8249,-25.677942 C 1767.3411,-26.996683 1765.0336,-29.189165 1765.0336,-31.398057 C 1765.0336,-33.475052 1766.6816,-34.530076 1768.66,-34.530076 C 1770.6385,-34.530076 1772.4513,-33.260797 1772.4513,-31.167237 C 1772.4513,-28.925371 1770.6385,-26.947299 1768.8249,-25.677942 z M 1778.7157,-8.7485718 C 1776.7372,-6.2264236 1773.9352,-4.0340188 1770.6385,-4.0340188 C 1766.3526,-4.0340188 1762.8903,-6.7209609 1762.8903,-11.221181 C 1762.8903,-14.633481 1765.1985,-17.435834 1767.8357,-19.364444 L 1778.7157,-8.7485718"
         style="fill:#8e8674;fill-rule:nonzero;stroke:none;stroke-width:0.062;stroke-linecap:butt;stroke-linejoin:miter;stroke-miterlimit:4;stroke-dasharray:none"
         id="path12515" />
      <path
         d="M 1830.1463,-37.266479 L 1830.1463,-37.101608 C 1832.9491,-36.063072 1832.4545,-32.040902 1832.4545,-29.518831 L 1832.4545,-8.8145204 C 1832.4545,-6.3418337 1832.9491,-2.2702025 1830.1463,-1.2811278 L 1830.1463,-1.1163336 L 1840.5317,-1.1163336 L 1840.5317,-1.2811278 C 1837.8945,-2.2702025 1838.0594,-6.2758851 1838.0594,-8.8145204 L 1838.0594,-33.425591 C 1839.3776,-33.639924 1840.5317,-33.804718 1841.8506,-33.870667 C 1845.477,-34.035538 1848.9386,-31.727723 1848.9386,-27.771502 C 1848.9386,-22.595385 1843.8283,-20.567852 1839.5424,-19.908443 L 1844.4878,-12.160794 L 1851.2468,-3.8692247 C 1852.8947,-1.8416138 1854.7083,-1.1163336 1857.5103,-1.1163336 L 1862.6206,-1.1163336 C 1859.4888,-3.0944056 1856.0273,-5.9627068 1853.7191,-8.8145204 L 1845.8068,-18.754574 C 1850.2575,-19.793033 1854.5434,-23.58446 1854.5434,-28.430833 C 1854.5434,-33.425591 1850.5873,-37.266479 1843.1688,-37.266479 L 1830.1463,-37.266479"
         style="fill:#8e8674;fill-rule:nonzero;stroke:none;stroke-width:0.062;stroke-linecap:butt;stroke-linejoin:miter;stroke-miterlimit:4;stroke-dasharray:none"
         id="path12517" />
      <path
         d="M 1884.05,-18.754574 L 1888.1718,-18.754574 C 1889.8198,-18.754574 1892.128,-18.804036 1892.9515,-17.221501 L 1893.1164,-17.221501 L 1893.1164,-23.040461 L 1892.9515,-23.040461 C 1892.2928,-22.710795 1891.4685,-22.710795 1890.6441,-22.710795 L 1884.05,-22.710795 L 1884.05,-32.931053 C 1885.8636,-33.260797 1887.6772,-33.310181 1889.6549,-33.310181 C 1892.128,-33.310181 1894.4354,-33.095925 1896.0841,-31.117776 L 1896.249,-31.117776 L 1896.249,-37.546684 L 1896.0841,-37.546684 C 1895.4246,-37.151069 1894.4354,-37.266479 1893.611,-37.266479 L 1875.9729,-37.266479 L 1875.9729,-37.101608 C 1878.7757,-36.063072 1878.4459,-32.040902 1878.4459,-29.518831 L 1878.4459,-8.8145204 C 1878.4459,-6.3418337 1878.7757,-2.2702025 1875.9729,-1.2811278 L 1875.9729,-1.1163336 L 1898.8861,-1.1163336 L 1901.3592,-8.3199831 L 1901.1943,-8.3199831 C 1898.3915,-5.8967581 1894.6003,-4.7428893 1890.9739,-5.072555 L 1884.05,-5.7318866 L 1884.05,-18.754574"
         style="fill:#8e8674;fill-rule:nonzero;stroke:none;stroke-width:0.062;stroke-linecap:butt;stroke-linejoin:miter;stroke-miterlimit:4;stroke-dasharray:none"
         id="path12519" />
      <path
         d="M 1938.4484,-36.936736 C 1935.8112,-37.761017 1933.0091,-38.140144 1930.3712,-38.140144 C 1923.613,-38.140144 1916.5243,-35.502663 1916.5243,-28.595705 C 1916.5243,-16.941296 1935.4814,-18.474292 1935.4814,-9.9024407 C 1935.4814,-6.0616297 1930.7009,-4.1988904 1927.5692,-4.1988904 C 1923.2833,-4.1988904 1918.8325,-5.9627068 1915.5351,-8.7485718 L 1917.1838,-1.8910753 C 1920.3156,-0.73720639 1923.613,-0.24266904 1926.9097,-0.24266904 C 1935.4814,-0.24266904 1941.7458,-5.7318866 1941.7458,-11.616796 C 1941.7458,-21.771182 1922.7886,-21.672259 1922.7886,-29.189165 C 1922.7886,-32.980515 1926.7448,-34.200332 1929.8766,-34.200332 C 1932.8443,-34.200332 1936.3058,-32.931053 1938.4484,-30.738648 L 1938.4484,-36.936736"
         style="fill:#8e8674;fill-rule:nonzero;stroke:none;stroke-width:0.062;stroke-linecap:butt;stroke-linejoin:miter;stroke-miterlimit:4;stroke-dasharray:none"
         id="path12527" />
      <path
         d="M 1977.0221,-38.206093 C 1965.4826,-38.46981 1956.4163,-29.749574 1956.4163,-19.298496 C 1956.4163,-8.0397014 1965.6475,-0.24266904 1976.5275,-0.24266904 C 1987.4075,-0.24266904 1996.6387,-8.3694446 1996.6387,-19.578777 C 1996.6387,-29.469369 1988.5608,-38.255477 1977.0221,-38.206093 z M 1976.6924,-34.249794 C 1985.2641,-34.249794 1990.3744,-26.502145 1990.3744,-18.474292 C 1990.3744,-10.298055 1985.0993,-4.1988904 1976.6924,-4.1988904 C 1968.1206,-4.1988904 1962.6806,-12.111333 1962.6806,-19.793033 C 1962.6806,-28.101167 1968.1206,-34.249794 1976.6924,-34.249794"
         style="fill:#8e8674;fill-rule:nonzero;stroke:none;stroke-width:0.062;stroke-linecap:butt;stroke-linejoin:miter;stroke-miterlimit:4;stroke-dasharray:none"
         id="path12535" />
      <path
         d="M 2011.8038,-37.266479 L 2011.8038,-37.101608 C 2014.6066,-36.063072 2014.2769,-32.040902 2014.2769,-29.518831 L 2014.2769,-8.8145204 C 2014.2769,-6.3418337 2014.6066,-2.2702025 2011.8038,-1.2811278 L 2011.8038,-1.1163336 L 2022.3541,-1.1163336 L 2022.3541,-1.2811278 C 2019.5512,-2.2702025 2019.881,-6.2758851 2019.881,-8.8145204 L 2019.881,-33.425591 C 2021.2,-33.639924 2022.3541,-33.804718 2023.673,-33.870667 C 2027.2994,-34.035538 2030.761,-31.727723 2030.761,-27.771502 C 2030.761,-22.595385 2025.6507,-20.567852 2021.2,-19.908443 L 2026.3102,-12.160794 L 2032.9035,-3.8692247 C 2034.5522,-1.8416138 2036.3658,-1.1163336 2039.3327,-1.1163336 L 2044.443,-1.1163336 C 2041.3112,-3.0944056 2037.8489,-5.9627068 2035.5415,-8.8145204 L 2027.6292,-18.754574 C 2032.0799,-19.793033 2036.3658,-23.58446 2036.3658,-28.430833 C 2036.3658,-33.425591 2032.2448,-37.266479 2024.9912,-37.266479 L 2011.8038,-37.266479"
         style="fill:#8e8674;fill-rule:nonzero;stroke:none;stroke-width:0.062;stroke-linecap:butt;stroke-linejoin:miter;stroke-miterlimit:4;stroke-dasharray:none"
         id="path12537" />
      <path
         d="M 2069.0042,-33.310181 L 2073.9496,-33.310181 C 2075.7632,-33.310181 2077.9065,-33.029976 2078.7301,-31.117776 L 2078.8949,-31.117776 L 2080.5437,-37.645607 L 2080.3788,-37.645607 C 2079.7193,-37.315941 2078.8949,-37.266479 2077.9065,-37.266479 L 2055.9817,-37.266479 C 2055.323,-37.381812 2054.6635,-37.381812 2054.004,-37.645607 L 2053.8391,-37.645607 L 2051.8607,-31.117776 L 2052.0255,-31.117776 C 2053.6742,-32.716798 2056.1465,-33.310181 2058.6196,-33.310181 L 2063.4001,-33.310181 L 2063.4001,-8.8145204 C 2063.4001,-6.3418337 2063.7299,-2.3361511 2060.927,-1.2811278 L 2060.927,-1.1163336 L 2071.807,-1.1163336 L 2071.807,-1.2811278 C 2069.0042,-2.9955601 2069.0042,-5.1385037 2069.0042,-8.2540345 L 2069.0042,-33.310181"
         style="fill:#8e8674;fill-rule:nonzero;stroke:none;stroke-width:0.062;stroke-linecap:butt;stroke-linejoin:miter;stroke-miterlimit:4;stroke-dasharray:none"
         id="path12539" />
      <path
         d="M 2114.1713,-36.936736 C 2111.699,-37.761017 2108.8969,-38.140144 2106.0941,-38.140144 C 2099.3359,-38.140144 2092.2472,-35.502663 2092.2472,-28.595705 C 2092.2472,-16.941296 2111.2044,-18.474292 2111.2044,-9.9024407 C 2111.2044,-6.0616297 2106.4239,-4.1988904 2103.2921,-4.1988904 C 2099.0062,-4.1988904 2094.5554,-5.9627068 2091.2588,-8.7485718 L 2092.9067,-1.8910753 C 2096.0393,-0.73720639 2099.3359,-0.24266904 2102.7975,-0.24266904 C 2111.2044,-0.24266904 2117.4687,-5.7318866 2117.4687,-11.616796 C 2117.4687,-21.771182 2098.5116,-21.672259 2098.5116,-29.189165 C 2098.5116,-32.980515 2102.4677,-34.200332 2105.5995,-34.200332 C 2108.7321,-34.200332 2112.0287,-32.931053 2114.1713,-30.738648 L 2114.1713,-36.936736"
         style="fill:#8e8674;fill-rule:nonzero;stroke:none;stroke-width:0.062;stroke-linecap:butt;stroke-linejoin:miter;stroke-miterlimit:4;stroke-dasharray:none"
         id="path12547" />
      <path
         d="M 2123.0736,-180.35048 C 2123.0736,-186.00457 2127.3595,-190.29053 2132.7987,-190.29053 C 2138.2387,-190.29053 2142.5245,-186.00457 2142.5245,-180.35048 C 2142.5245,-174.58098 2138.2387,-170.34448 2132.7987,-170.34448 C 2127.3595,-170.34448 2123.0736,-174.58098 2123.0736,-180.35048 z M 2132.7987,-168.34984 C 2139.3928,-168.34984 2144.9976,-173.41055 2144.9976,-180.35048 C 2144.9976,-187.20797 2139.3928,-192.28509 2132.7987,-192.28509 C 2126.2054,-192.28509 2120.7654,-187.20797 2120.7654,-180.35048 C 2120.7654,-173.41055 2126.2054,-168.34984 2132.7987,-168.34984 z M 2130.3264,-179.39438 L 2132.7987,-179.39438 L 2136.4258,-173.41055 L 2138.7333,-173.41055 L 2134.7771,-179.4933 C 2136.7548,-179.74053 2138.4035,-180.82853 2138.4035,-183.28465 C 2138.4035,-186.00457 2136.7548,-187.20797 2133.4582,-187.20797 L 2128.183,-187.20797 L 2128.183,-173.41055 L 2130.3264,-173.41055 L 2130.3264,-179.39438 z M 2130.3264,-181.17468 L 2130.3264,-185.44416 L 2133.1284,-185.44416 C 2134.6123,-185.44416 2136.261,-185.1309 2136.261,-183.41655 C 2136.261,-181.29009 2134.6123,-181.17468 2132.7987,-181.17468 L 2130.3264,-181.17468"
         style="fill:#8e8674;fill-rule:nonzero;stroke:none;stroke-width:0.062;stroke-linecap:butt;stroke-linejoin:miter;stroke-miterlimit:4;stroke-dasharray:none"
         id="path12555" />
    </g>
  </g>
  <g
     transform="translate(-1444.249,-252.54111)"
     style="display:inline"
     id="layer1" />
</svg>
